<?xml version="1.0" encoding="utf-8"?>
<svg viewBox="317.979 258.242 21.5 21.5" xmlns="http://www.w3.org/2000/svg">
  <path fill-rule="evenodd" clip-rule="evenodd" d="M 328.729 258.242 C 328.125 258.242 327.568 258.392 326.958 258.644 C 326.369 258.888 325.686 259.246 324.834 259.693 L 322.767 260.778 C 321.722 261.327 320.885 261.765 320.24 262.197 C 319.571 262.643 319.056 263.114 318.68 263.751 C 318.306 264.386 318.138 265.074 318.058 265.892 C 317.979 266.687 317.979 267.665 317.979 268.894 L 317.979 269.089 C 317.979 270.319 317.979 271.296 318.058 272.091 C 318.138 272.91 318.306 273.598 318.68 274.233 C 319.056 274.87 319.571 275.34 320.24 275.787 C 320.885 276.218 321.722 276.657 322.767 277.205 L 324.834 278.29 C 325.686 278.737 326.369 279.096 326.958 279.339 C 327.568 279.591 328.125 279.742 328.729 279.742 C 329.334 279.742 329.891 279.591 330.5 279.339 C 331.089 279.096 331.773 278.737 332.624 278.29 L 334.692 277.205 C 335.737 276.657 336.573 276.218 337.219 275.787 C 337.888 275.34 338.403 274.87 338.778 274.233 C 339.152 273.598 339.32 272.91 339.401 272.091 C 339.479 271.296 339.479 270.319 339.479 269.089 L 339.479 268.894 C 339.479 267.665 339.479 266.687 339.401 265.892 C 339.32 265.074 339.152 264.386 338.778 263.751 C 338.403 263.114 337.888 262.643 337.219 262.197 C 336.573 261.765 335.737 261.327 334.692 260.778 L 332.624 259.693 C 331.773 259.246 331.089 258.888 330.5 258.644 C 329.891 258.392 329.334 258.242 328.729 258.242 Z M 325.5 261.038 C 326.39 260.571 327.013 260.245 327.531 260.03 C 328.035 259.822 328.39 259.742 328.729 259.742 C 329.069 259.742 329.423 259.822 329.927 260.03 C 330.445 260.245 331.069 260.571 331.958 261.038 L 333.958 262.087 C 335.048 262.659 335.814 263.062 336.386 263.444 C 336.668 263.632 336.89 263.807 337.069 263.983 L 333.738 265.649 L 325.238 261.175 L 325.5 261.038 Z M 323.674 261.996 L 323.5 262.087 C 322.41 262.659 321.645 263.062 321.073 263.444 C 320.791 263.632 320.569 263.807 320.39 263.983 L 328.729 268.153 L 332.086 266.475 L 323.88 262.155 C 323.8 262.113 323.731 262.059 323.674 261.996 Z M 319.667 265.299 C 319.616 265.513 319.578 265.756 319.55 266.039 C 319.48 266.752 319.479 267.656 319.479 268.933 L 319.479 269.05 C 319.479 270.327 319.48 271.231 319.55 271.944 C 319.619 272.641 319.75 273.092 319.973 273.471 C 320.195 273.849 320.517 274.168 321.073 274.539 C 321.645 274.921 322.41 275.324 323.5 275.896 L 325.5 276.946 C 326.39 277.413 327.013 277.739 327.531 277.953 C 327.695 278.021 327.843 278.075 327.979 278.117 L 327.979 269.455 L 319.667 265.299 Z M 329.479 278.117 C 329.616 278.075 329.764 278.021 329.927 277.953 C 330.445 277.739 331.069 277.413 331.958 276.946 L 333.958 275.896 C 335.048 275.324 335.814 274.921 336.386 274.539 C 336.942 274.168 337.263 273.849 337.486 273.471 C 337.709 273.092 337.84 272.641 337.908 271.944 C 337.978 271.231 337.979 270.327 337.979 269.05 L 337.979 268.933 C 337.979 267.656 337.978 266.752 337.908 266.039 C 337.88 265.756 337.842 265.513 337.792 265.299 L 334.479 266.955 L 334.479 269.992 C 334.479 270.406 334.143 270.742 333.729 270.742 C 333.315 270.742 332.979 270.406 332.979 269.992 L 332.979 267.705 L 329.479 269.455 L 329.479 278.117 Z" style="fill: rgb(10, 202, 161);" transform="matrix(0.9999999999999999, 0, 0, 0.9999999999999999, 0, 0)"/>
</svg>